<svg xmlns="http://www.w3.org/2000/svg" version="1.1" xmlns:xlink="http://www.w3.org/1999/xlink" xmlns:svgjs="http://svgjs.com/svgjs" width="1000" height="1000"><rect width="1000" height="1000" rx="150" ry="150" fill="#ffffff"></rect><g transform="matrix(1.5625,0,0,1.5625,100.0028093457222,100.00278091430664)"><svg xmlns="http://www.w3.org/2000/svg" version="1.1" xmlns:xlink="http://www.w3.org/1999/xlink" xmlns:svgjs="http://svgjs.com/svgjs" width="512" height="512"><svg id="Camada_1" data-name="Camada 1" xmlns="http://www.w3.org/2000/svg" viewBox="0 0 512 512">
  <defs>
    <style>
      .cls-1 {
        fill: #1b2024;
      }

      .cls-2 {
        fill: #fefefe;
      }
    </style>
  </defs>
  <path class="cls-2" d="M.1,256C.1,172.03,.12,88.06,0,4.09,0,.67,.67,0,4.09,0c167.94,.11,335.87,.11,503.81,0,3.42,0,4.1,.67,4.09,4.09-.11,167.94-.11,335.88,0,503.81,0,3.42-.67,4.1-4.09,4.09-167.94-.11-335.87-.11-503.81,0-3.42,0-4.1-.67-4.09-4.09,.12-83.97,.1-167.94,.1-251.91Z"></path>
  <path class="cls-1" d="M253,463.09c-43.64,0-87.29-.04-130.93,.07-3.77,0-6.49-.96-9.08-3.86-13.64-15.28-27.47-30.39-41.29-45.51-1.91-2.09-2.86-4.26-2.6-7.18,2.28-25.01,4.52-50.03,6.67-75.05,1.83-21.21,3.52-42.43,5.3-63.65,.19-2.32,.98-4.69,.69-6.94-1.24-9.63,4.03-14.46,11.73-18.97,22.49-13.18,44.53-27.11,66.84-40.6,2.82-1.71,4.15-3.74,4.87-6.92,4.89-21.51,9.8-43.03,15.16-64.43,1.61-6.44-.48-12.2-1.51-18.14-3.22-18.47-6.83-36.87-10.35-55.28-1.22-6.4,1.4-8.88,7.7-6.94,40.89,12.64,81.77,25.28,122.62,38.04,3.18,.99,5.96,.93,9.11-.06,40.36-12.61,80.75-25.12,121.14-37.64,7.73-2.4,10.24-.12,8.74,7.95-4.02,21.53-7.96,43.07-12.23,64.55-.6,3.04,.13,5.6,.74,8.26,5.15,22.3,10.27,44.61,15.79,66.81,1.3,5.22-.12,7.91-4.62,10.37-24.17,13.23-48.21,26.69-72.32,40.02-2.53,1.4-4.39,2.91-5.47,5.91-16.79,46.48-33.72,92.92-50.73,139.32-1.12,3.05-.63,4.55,2.08,6.39,25.73,17.44,51.36,35.05,77,52.61,1.23,.84,2.44,1.73,3.6,2.67,1.64,1.33,1.83,3.15,1.29,5-.56,1.93-1.97,3.04-4.02,3.14-1.5,.08-3,.06-4.5,.06-43.81,0-87.62,0-131.43,0Z"></path>
  <path class="cls-2" d="M344.46,268.18c-3.22,8.82-6.27,17.18-9.32,25.55-11.34,31.17-22.74,62.31-33.9,93.54-1.4,3.91-2.53,3.95-5.66,1.79-60.19-41.51-120.44-82.92-180.68-124.36-4.93-3.39-9.77-6.9-14.84-10.07-3.46-2.17-3.54-3.36,.11-5.55,19.93-11.98,39.95-23.83,59.45-36.47,6.46-4.19,11.06-4.29,17.67-.43,21.77,12.71,43.98,24.68,66.04,36.9,2.21,1.22,4.11,2.75,5.89,4.53,16.21,16.28,32.46,32.51,48.71,48.75,4.56,4.56,6.04,4.59,10.64,0,10.85-10.8,21.67-21.64,32.51-32.45,.68-.68,1.18-1.66,3.38-1.73Z"></path>
  <path class="cls-2" d="M297.48,288.83c-7.41-7.52-14.82-14.24-21.29-21.77-15.45-17.95-34.45-30.86-55.42-41.43-14.07-7.09-27.62-15.22-41.44-22.82-2.36-1.29-3.67-1.97-1.06-4.78,31.93-34.38,63.75-68.87,95.46-103.46,2.88-3.14,5.35-4.31,9.35-2.41,4.89,2.33,12.18,1.85,14.73,6.02,2.38,3.91,.74,10.32,.75,15.63,.02,56.43,.02,112.85,0,169.28,0,1.59,.48,3.29-1.05,5.72Z"></path>
  <path class="cls-2" d="M429.98,201.03c-9.49,5.3-19.01,10.63-28.55,15.93-14.05,7.8-28.11,15.58-42.18,23.33-3.22,1.77-6.1,3.88-8.71,6.52-12.75,12.91-25.61,25.71-38.47,38.5-.99,.99-1.7,2.47-3.49,2.63-1.15-1.48-.53-3.18-.53-4.73-.04-60.26,0-120.52-.14-180.77,0-3.84,1.02-5.57,4.73-6.48,4.49-1.09,8.86-2.7,13.2-4.32,1.96-.73,3.33-.74,4.85,.91,32.9,35.76,65.84,71.48,98.76,107.23,.2,.22,.26,.58,.54,1.26Z"></path>
  <path class="cls-2" d="M81.96,410.38c16.41-7.67,32.6-15.23,48.78-22.82,26.31-12.34,52.64-24.61,78.86-37.14,4.12-1.97,5.42-1.39,6.59,3.03,8.39,31.77,17,63.47,25.63,95.17,1.01,3.71,1.12,5.31-3.82,5.28-37.65-.24-75.29-.14-112.94-.13-2.16,0-4.1,.07-5.84-1.87-11.89-13.26-23.93-26.41-35.9-39.6-.43-.48-.75-1.06-1.36-1.93Z"></path>
  <path class="cls-2" d="M208.11,340.78c-43.28,20.28-85.74,40.18-128.78,60.35,1.06-13.06,2.01-25.44,3.08-37.8,1.51-17.4,3.13-34.78,4.65-52.18,1.39-15.91,2.68-31.82,4.04-47.73,.44-5.11,3.13-1.32,4.07-.68,12.67,8.55,25.21,17.29,37.79,25.97,23.38,16.13,46.77,32.25,70.14,48.38,1.49,1.03,2.93,2.14,5.02,3.67Z"></path>
  <path class="cls-2" d="M371.9,452.68c-2.05,1.57-3.42,1.1-4.66,1.1-36.63,.03-73.25-.03-109.88,.11-3.5,.01-4.7-1.01-5.61-4.42-8.38-31.7-17.02-63.33-24.78-95.94,48.2,32.98,96.4,65.95,144.93,99.15Z"></path>
  <path class="cls-2" d="M261.44,86.47c-8.91,4.04-17.17,7.79-25.45,11.53-14.04,6.34-28.08,12.67-42.12,19-2.15,.97-4.09,2.38-4.81-1.73-3.01-17.13-6.21-34.22-9.55-51.29-.55-2.81,.16-3.4,2.58-2.66,25.94,7.94,51.88,15.9,77.81,23.87,.27,.08,.48,.39,1.53,1.28Z"></path>
  <path class="cls-2" d="M345.72,85.35c24.31-7.42,48.56-14.84,72.83-22.22,8.85-2.69,8.97-2.61,7.33,6.32-2.79,15.17-5.77,30.31-8.56,45.48-.49,2.66-1,3.71-4.04,2.33-21.72-9.9-43.53-19.61-65.29-29.42-.82-.37-2.01-.5-2.27-2.49Z"></path>
  <path class="cls-2" d="M351.83,101.5c2.23-1,3.69,.09,5.15,.74,17.99,8.07,35.91,16.29,53.96,24.22,3.67,1.61,5.6,3.6,6.49,7.69,3.55,16.33,7.57,32.56,10.41,49.63-25.3-27.39-50.61-54.78-76.02-82.29Z"></path>
  <path class="cls-2" d="M177.82,182.84c2.1-9.13,4.16-18.27,6.3-27.39,1.86-7.89,3.9-15.75,5.66-23.66,.44-1.99,1.2-3.08,3.12-3.94,19.53-8.71,39-17.54,58.48-26.34,.77-.35,1.51-.68,3.03,.1-25.28,27.39-50.41,54.62-75.54,81.84-.35-.2-.71-.41-1.06-.61Z"></path>
</svg></svg></g></svg>